<svg xmlns="http://www.w3.org/2000/svg" width="64" height="64" viewBox="0 0 64 64">
  <defs>
    <linearGradient id="tile" x1="0" y1="0" x2="1" y2="1">
      <stop offset="0" stop-color="#3fa86c"/>
      <stop offset="0.55" stop-color="#1f6a41"/>
      <stop offset="1" stop-color="#0f3d26"/>
    </linearGradient>
    <linearGradient id="shine" x1="0" y1="0" x2="0" y2="1">
      <stop offset="0" stop-color="#ffffff" stop-opacity="0.35"/>
      <stop offset="1" stop-color="#ffffff" stop-opacity="0"/>
    </linearGradient>
    <linearGradient id="bolt" x1="0" y1="0" x2="0" y2="1">
      <stop offset="0" stop-color="#ffffff"/>
      <stop offset="1" stop-color="#d7f5e3"/>
    </linearGradient>
  </defs>
  <!-- tile with a darker bottom edge for depth -->
  <rect x="2" y="5" width="60" height="57" rx="16" fill="#0a2a1a"/>
  <rect x="2" y="2" width="60" height="57" rx="16" fill="url(#tile)"/>
  <path d="M18 2h28a16 16 0 0 1 16 16v4C44 30 20 30 2 22v-4A16 16 0 0 1 18 2z" fill="url(#shine)"/>
  <!-- { } braces -->
  <path d="M21 17c-4 0-5 2-5 5v4c0 2.4-1 3.5-3 3.5 2 0 3 1.1 3 3.5v4c0 3 1 5 5 5" fill="none" stroke="#9be3b9" stroke-width="3.6" stroke-linecap="round" stroke-linejoin="round"/>
  <path d="M43 17c4 0 5 2 5 5v4c0 2.4 1 3.5 3 3.5-2 0-3 1.1-3 3.5v4c0 3-1 5-5 5" fill="none" stroke="#9be3b9" stroke-width="3.6" stroke-linecap="round" stroke-linejoin="round"/>
  <!-- bolt -->
  <path d="M35.5 13 24 33h7.5L28 47l12.5-21H33l2.5-13z" fill="url(#bolt)" stroke="#0f3d26" stroke-width="1" stroke-linejoin="round"/>
</svg>
